<svg width="20" height="19" viewBox="0 0 20 19" fill="none" xmlns="http://www.w3.org/2000/svg">
<path d="M9.99121 18.7422C14.9746 18.7422 19.0879 14.6289 19.0879 9.6543C19.0879 4.67969 14.9658 0.566406 9.98242 0.566406C5.00781 0.566406 0.90332 4.67969 0.90332 9.6543C0.90332 14.6289 5.0166 18.7422 9.99121 18.7422ZM9.99121 16.9316C5.95703 16.9316 2.73145 13.6885 2.73145 9.6543C2.73145 5.62012 5.95703 2.38574 9.98242 2.38574C14.0166 2.38574 17.2598 5.62012 17.2686 9.6543C17.2773 13.6885 14.0254 16.9316 9.99121 16.9316ZM8.02246 13.9873C8.27734 14.2422 8.7959 14.2246 9.06836 13.9609L12.6455 10.5947C13.1816 10.1025 13.1816 9.23242 12.6455 8.74023L9.06836 5.37402C8.76953 5.09277 8.3125 5.08398 8.03125 5.34766C7.72363 5.6377 7.71484 6.12988 8.01367 6.41113L11.4854 9.66309L8.01367 12.9238C7.72363 13.2051 7.71484 13.6885 8.02246 13.9873Z" fill="#1C1C1E"/>
</svg>
