<svg width="12" height="11" viewBox="0 0 12 11" fill="none" xmlns="http://www.w3.org/2000/svg">
<path d="M5.99496 10.9955C8.84262 10.9955 11.1931 8.64509 11.1931 5.80246C11.1931 2.95982 8.83759 0.609375 5.98994 0.609375C3.1473 0.609375 0.80188 2.95982 0.80188 5.80246C0.80188 8.64509 3.15233 10.9955 5.99496 10.9955ZM5.99496 9.96094C3.68971 9.96094 1.84652 8.1077 1.84652 5.80246C1.84652 3.49721 3.68971 1.649 5.98994 1.649C8.29518 1.649 10.1484 3.49721 10.1534 5.80246C10.1585 8.1077 8.30021 9.96094 5.99496 9.96094ZM4.86996 8.27846C5.01561 8.42411 5.31192 8.41406 5.46762 8.26339L7.5117 6.33984C7.81806 6.05859 7.81806 5.56138 7.5117 5.28013L5.46762 3.35659C5.29686 3.19587 5.0357 3.19085 4.87498 3.34152C4.6992 3.50725 4.69418 3.7885 4.86494 3.94922L6.84875 5.80748L4.86494 7.67076C4.6992 7.83147 4.69418 8.1077 4.86996 8.27846Z" fill="white"/>
</svg>
