<svg width="8" height="14" viewBox="0 0 8 14" fill="none" xmlns="http://www.w3.org/2000/svg">
<path d="M0.156006 6.70368C0.156006 6.96735 0.253941 7.19336 0.464879 7.38923L6.32593 13.1297C6.49166 13.2955 6.7026 13.3859 6.95121 13.3859C7.44842 13.3859 7.84769 12.9941 7.84769 12.4894C7.84769 12.2408 7.74222 12.0223 7.57649 11.8491L2.29551 6.70368L7.57649 1.55831C7.74222 1.38504 7.84769 1.15904 7.84769 0.917969C7.84769 0.413225 7.44842 0.0214844 6.95121 0.0214844C6.7026 0.0214844 6.49166 0.111886 6.32593 0.277623L0.464879 6.0106C0.253941 6.21401 0.156006 6.44001 0.156006 6.70368Z" fill="white"/>
</svg>
