<svg width="28" height="28" viewBox="0 0 28 28" fill="none" xmlns="http://www.w3.org/2000/svg">
<path d="M5.8335 21V25.3937L7.601 24.3332L13.1567 21H18.6668C19.9537 21 21.0002 19.9535 21.0002 18.6667V9.33333C21.0002 8.0465 19.9537 7 18.6668 7H4.66683C3.38 7 2.3335 8.0465 2.3335 9.33333V18.6667C2.3335 19.9535 3.38 21 4.66683 21H5.8335ZM4.66683 9.33333H18.6668V18.6667H12.5103L8.16683 21.273V18.6667H4.66683V9.33333Z" fill="black"/>
<path d="M23.3333 2.3335H9.33333C8.0465 2.3335 7 3.38 7 4.66683H21C22.2868 4.66683 23.3333 5.71333 23.3333 7.00016V16.3335C24.6202 16.3335 25.6667 15.287 25.6667 14.0002V4.66683C25.6667 3.38 24.6202 2.3335 23.3333 2.3335Z" fill="black"/>
</svg>
