<svg width="28" height="29" viewBox="0 0 28 29" fill="none" xmlns="http://www.w3.org/2000/svg">
<path fill-rule="evenodd" clip-rule="evenodd" d="M23.4862 4.18686C22.8299 3.53071 21.9398 3.16211 21.0117 3.16211C20.0836 3.16211 19.1935 3.53071 18.5372 4.18686L17.7124 5.01286L23.4874 10.7879L24.311 9.96303C24.6361 9.63802 24.894 9.25215 25.0699 8.82747C25.2458 8.4028 25.3364 7.94762 25.3364 7.48795C25.3364 7.02827 25.2458 6.5731 25.0699 6.14842C24.894 5.72374 24.6361 5.33788 24.311 5.01286L23.4862 4.18686ZM21.8365 12.4375L16.0615 6.66253L5.45653 17.2687C5.22446 17.5008 5.06234 17.7935 4.9887 18.1134L3.7882 23.3109C3.74347 23.5038 3.7486 23.705 3.80311 23.8954C3.85762 24.0858 3.95971 24.2592 4.09977 24.3993C4.23982 24.5394 4.41323 24.6414 4.60365 24.696C4.79408 24.7505 4.99524 24.7556 5.1882 24.7109L10.3869 23.5115C10.7063 23.4377 10.9986 23.2756 11.2304 23.0437L21.8365 12.4375Z" fill="black"/>
</svg>
