<svg width="20" height="20" viewBox="0 0 20 20" fill="none" xmlns="http://www.w3.org/2000/svg">
<path d="M3.13595 3.6625C3.0339 3.75096 2.95216 3.86042 2.89634 3.98339C2.84052 4.10637 2.81192 4.23995 2.81251 4.375V17.5C2.81251 17.7486 2.91128 17.9871 3.0871 18.1629C3.26291 18.3387 3.50137 18.4375 3.75001 18.4375C3.99865 18.4375 4.23711 18.3387 4.41292 18.1629C4.58874 17.9871 4.68751 17.7486 4.68751 17.5V14.1969C6.47188 12.8594 7.97657 13.4844 10.2094 14.5875C11.4774 15.2125 12.9234 15.9312 14.4906 15.9312C15.6406 15.9312 16.8563 15.5453 18.1141 14.4562C18.2153 14.3685 18.2966 14.26 18.3524 14.1382C18.4082 14.0164 18.4372 13.884 18.4375 13.75V4.375C18.4375 4.19525 18.3859 4.01927 18.2887 3.86804C18.1916 3.71681 18.053 3.59671 17.8895 3.52203C17.726 3.44736 17.5444 3.42126 17.3665 3.44686C17.1886 3.47246 17.0218 3.54867 16.8859 3.66641C14.9555 5.33906 13.407 4.70625 11.0406 3.53516C8.84298 2.44297 6.10704 1.08906 3.13595 3.6625ZM16.5625 13.3016C14.7781 14.6398 13.2734 14.0133 11.0406 12.9109C9.23126 12.0125 7.05704 10.9375 4.68751 12.0211V4.81953C6.47188 3.48203 7.97657 4.10703 10.2094 5.21016C11.4774 5.83516 12.9234 6.55391 14.4906 6.55391C15.206 6.55498 15.9131 6.40008 16.5625 6.1V13.3016Z" fill="#1C1C1C"/>
</svg>
