<svg width="31" height="31" viewBox="0 0 31 31" fill="none" xmlns="http://www.w3.org/2000/svg">
<path d="M19.7625 13.2396L24.3156 8.65417L23.4115 7.75L19.7625 11.399L17.9219 9.55833L17.0177 10.4948L19.7625 13.2396ZM3.875 25.8333V23.25H19.375V25.8333H3.875ZM20.6667 16.7917C18.8799 16.7917 17.357 16.1618 16.098 14.902C14.8391 13.6422 14.2092 12.1193 14.2083 10.3333C14.2075 8.54739 14.8374 7.02451 16.098 5.76471C17.3587 4.5049 18.8816 3.875 20.6667 3.875C22.4517 3.875 23.9751 4.5049 25.2366 5.76471C26.4981 7.02451 27.1276 8.54739 27.125 10.3333C27.1224 12.1193 26.4925 13.6426 25.2353 14.9033C23.9781 16.1639 22.4552 16.7934 20.6667 16.7917ZM3.875 15.5V12.9167H12.0125C12.1632 13.3903 12.3354 13.8424 12.5292 14.2729C12.7229 14.7035 12.9597 15.1125 13.2396 15.5H3.875ZM3.875 20.6667V18.0833H16.0167C16.5118 18.3847 17.0392 18.6379 17.599 18.8428C18.1587 19.0478 18.7507 19.1929 19.375 19.2781V20.6667H3.875Z" fill="#005BF0"/>
</svg>
