<svg width="33" height="33" viewBox="0 0 33 33" fill="none" xmlns="http://www.w3.org/2000/svg">
<path d="M16.5002 1.83334C13.5994 1.83334 10.7637 2.69352 8.35181 4.30511C5.93988 5.91671 4.06002 8.20733 2.94994 10.8873C1.83985 13.5673 1.5494 16.5163 2.11532 19.3613C2.68124 22.2064 4.0781 24.8197 6.12927 26.8709C8.18044 28.9221 10.7938 30.3189 13.6388 30.8849C16.4839 31.4508 19.4329 31.1603 22.1129 30.0502C24.7928 28.9402 27.0835 27.0603 28.6951 24.6484C30.3067 22.2364 31.1668 19.4008 31.1668 16.5C31.1668 12.6102 29.6216 8.87964 26.8711 6.1291C24.1205 3.37857 20.39 1.83334 16.5002 1.83334ZM23.8335 22.0917C24.0766 22.3348 24.2132 22.6645 24.2132 23.0083C24.2132 23.3522 24.0766 23.6819 23.8335 23.925C23.5904 24.1681 23.2607 24.3047 22.9168 24.3047C22.573 24.3047 22.2433 24.1681 22.0002 23.925L16.5002 18.425L11.0002 23.9433C10.8798 24.0637 10.7369 24.1592 10.5796 24.2244C10.4223 24.2895 10.2537 24.323 10.0835 24.323C9.91326 24.323 9.74469 24.2895 9.58741 24.2244C9.43012 24.1592 9.28721 24.0637 9.16684 23.9433C9.04646 23.823 8.95097 23.68 8.88582 23.5228C8.82067 23.3655 8.78714 23.1969 8.78714 23.0267C8.78714 22.8564 8.82067 22.6879 8.88582 22.5306C8.95097 22.3733 9.04646 22.2304 9.16684 22.11L14.6668 16.5733L9.011 10.8717C8.76789 10.6286 8.63131 10.2988 8.63131 9.955C8.63131 9.61119 8.76789 9.28145 9.011 9.03834C9.25412 8.79522 9.58385 8.65864 9.92767 8.65864C10.2715 8.65864 10.6012 8.79522 10.8443 9.03834L16.5002 14.7583L22.156 9.1025C22.2764 8.98212 22.4193 8.88663 22.5766 8.82149C22.7339 8.75634 22.9024 8.72281 23.0727 8.72281C23.2429 8.72281 23.4115 8.75634 23.5688 8.82149C23.726 8.88663 23.869 8.98212 23.9893 9.1025C24.1097 9.22288 24.2052 9.36579 24.2704 9.52307C24.3355 9.68035 24.369 9.84893 24.369 10.0192C24.369 10.1894 24.3355 10.358 24.2704 10.5153C24.2052 10.6725 24.1097 10.8155 23.9893 10.9358L18.3335 16.5733L23.8335 22.0917Z" fill="#FF5449"/>
</svg>
