<svg width="30" height="31" viewBox="0 0 30 31" fill="none" xmlns="http://www.w3.org/2000/svg">
<mask id="mask0_132_1057" style="mask-type:luminance" maskUnits="userSpaceOnUse" x="0" y="1" width="30" height="29">
<path d="M15 28C16.6418 28.0021 18.2679 27.6798 19.7848 27.0514C21.3016 26.4231 22.6793 25.5012 23.8388 24.3387C25.0012 23.1793 25.9231 21.8016 26.5515 20.2847C27.1798 18.7679 27.5021 17.1418 27.5 15.5C27.5021 13.8582 27.1797 12.2321 26.5514 10.7153C25.9231 9.19842 25.0012 7.82069 23.8388 6.66124C22.6793 5.49876 21.3016 4.57687 19.7848 3.94855C18.2679 3.32023 16.6418 2.99787 15 3C13.3582 2.9979 11.7321 3.32028 10.2153 3.9486C8.69843 4.57691 7.3207 5.49879 6.16126 6.66124C4.9988 7.82069 4.07693 9.19842 3.44861 10.7153C2.82029 12.2321 2.49792 13.8582 2.50001 15.5C2.49788 17.1418 2.82024 18.7679 3.44856 20.2847C4.07688 21.8016 4.99878 23.1793 6.16126 24.3387C7.3207 25.5012 8.69843 26.4231 10.2153 27.0514C11.7321 27.6797 13.3582 28.0021 15 28Z" fill="white" stroke="white" stroke-width="4" stroke-linejoin="round"/>
<path d="M10 15.5L13.75 19.25L21.25 11.75" stroke="black" stroke-width="4" stroke-linecap="round" stroke-linejoin="round"/>
</mask>
<g mask="url(#mask0_132_1057)">
<path d="M0 0.5H30V30.5H0V0.5Z" fill="#70E000"/>
</g>
</svg>
